<svg xmlns="http://www.w3.org/2000/svg" version="1.1" xmlns:xlink="http://www.w3.org/1999/xlink" xmlns:svgjs="http://svgjs.dev/svgjs" viewBox="0 0 800 800" opacity="0.83"><defs><symbol id="bbburst-shape-1" viewBox="0 0 194 167"><path d="m97 0 96.129 166.5H.871L97 0Z"></path></symbol><symbol id="bbburst-shape-4" viewBox="0 0 149 143"><path d="M71.647 2.781c.898-2.764 4.808-2.764 5.706 0l15.445 47.534a3 3 0 0 0 2.853 2.073h49.98c2.906 0 4.115 3.719 1.764 5.427L106.96 87.193a2.999 2.999 0 0 0-1.09 3.354l15.445 47.534c.898 2.764-2.266 5.062-4.617 3.354l-40.435-29.378a3 3 0 0 0-3.526 0l-40.435 29.378c-2.351 1.708-5.515-.59-4.617-3.354L43.13 90.547a3 3 0 0 0-1.09-3.354L1.605 57.815c-2.35-1.708-1.142-5.427 1.764-5.427h49.98a3 3 0 0 0 2.853-2.073L71.647 2.781Z"></path></symbol><symbol id="bbburst-shape-6" viewBox="0 0 133 116"><path d="M59.7487 10.2513c-13.6683-13.66839-35.8291-13.66839-49.4974 0-13.66839 13.6683-13.66839 35.8291 0 49.4974l49.4974-49.4974ZM66.5 66.5 41.7513 91.2487 66.5 115.997l24.7487-24.7483L66.5 66.5Zm56.249-6.7513c13.668-13.6683 13.668-35.8291 0-49.4974-13.669-13.66839-35.8294-13.66839-49.4977 0l49.4977 49.4974Zm-112.4977 0 31.5 31.5 49.4974-49.4974-31.5-31.5-49.4974 49.4974Zm80.9974 31.5 31.5003-31.5-49.4977-49.4974-31.5 31.5 49.4974 49.4974Z"></path></symbol><symbol id="bbburst-shape-8" viewBox="0 0 87 168"><path d="m12 12 31.2546 18.0749c16.4102 9.4902 20.014 31.6325 7.4603 45.8369L36.3296 92.1884c-12.5684 14.2206-8.9394 36.3916 7.5068 45.8636L75 156" stroke-width="14" stroke-linecap="round" stroke-linejoin="round"></path></symbol><symbol id="bbburst-shape-10" viewBox="0 0 145 145"><circle cx="72.5" cy="72.5" r="61.5" fill="none" stroke-width="22"></circle></symbol></defs><use xlink:href="#bbburst-shape-10" width="14.197532111718965" opacity="0.768959268319712" transform="matrix(0.999897748468031,-0.014300091208174803,0.014300091208174803,0.999897748468031,476.31411896805287,53.66687594435302)" fill="none" stroke="#ff5c58"></use><use xlink:href="#bbburst-shape-1" width="33.52893711003337" opacity="0.28412077080085607" transform="matrix(0.8994689024059133,0.4369847750262036,-0.4369847750262036,0.8994689024059133,704.8598719134276,-254.65972431006725)" fill="#00a19d"></use><use xlink:href="#bbburst-shape-4" width="19.774462376539816" opacity="0.6975575738034989" transform="matrix(0.7862335120298273,0.6179294980507432,-0.6179294980507432,0.7862335120298273,767.2670712164995,125.99056695014906)" fill="#2c2891"></use><use xlink:href="#bbburst-shape-6" width="32.592488722557306" opacity="0.4612134845940259" transform="matrix(0.9385435676278333,-0.3451607910299469,0.3451607910299469,0.9385435676278333,12.31671031478865,-32.04982148690567)" fill="#ff5c58"></use><use xlink:href="#bbburst-shape-10" width="35.85108930789534" opacity="0.25119813508023714" transform="matrix(0.8410142034176195,-0.5410130401846401,0.5410130401846401,0.8410142034176195,8.26916100427681,369.7084545239615)" fill="none" stroke="#2c2891"></use><use xlink:href="#bbburst-shape-10" width="32.24707488343487" opacity="0.29420144633892265" transform="matrix(0.92824737981117,0.3719634415822306,-0.3719634415822306,0.92824737981117,391.4281070872139,-261.198786406679)" fill="none" stroke="#ffa6d5"></use><use xlink:href="#bbburst-shape-4" width="26.062524710759792" opacity="0.24202763169388142" transform="matrix(0.7101583438484605,-0.7040419921158195,0.7040419921158195,0.7101583438484605,444.7549788653187,64.24243704066646)" fill="#ffa6d5"></use><use xlink:href="#bbburst-shape-8" width="19.71213195281123" opacity="0.5488477086974952" transform="matrix(0.7177356077443243,-0.6963157310989645,0.6963157310989645,0.7177356077443243,-64.28751256959436,216.13991354613063)" fill="none" stroke="#00a19d"></use><use xlink:href="#bbburst-shape-10" width="35.82956312844061" opacity="0.268429345961536" transform="matrix(0.9986617277142247,-0.051718020059161554,0.051718020059161554,0.9986617277142247,635.7757258447346,183.4154700770875)" fill="none" stroke="#ff5c58"></use><use xlink:href="#bbburst-shape-6" width="8.427421190515972" opacity="0.953404166880893" transform="matrix(0.8379534704510492,-0.5457416800639683,0.5457416800639683,0.8379534704510492,159.50436741300874,76.66625094989337)" fill="#2c2891"></use><use xlink:href="#bbburst-shape-1" width="10.906247472302995" opacity="0.8638181287897858" transform="matrix(0.9069720276426669,-0.4211908606246692,0.4211908606246692,0.9069720276426669,265.0952737902528,87.18967148591821)" fill="#ff5c58"></use><use xlink:href="#bbburst-shape-10" width="11.13778265869838" opacity="0.7896162074016969" transform="matrix(0.908248539401888,0.4184311062461026,-0.4184311062461026,0.908248539401888,469.2411306491266,17.04208621165668)" fill="none" stroke="#ffa6d5"></use><use xlink:href="#bbburst-shape-6" width="16.23076757850483" opacity="0.6902621807985028" transform="matrix(0.9478754586962786,-0.31864104381155817,0.31864104381155817,0.9478754586962786,156.9138834499081,-64.75068366541649)" fill="#ffa6d5"></use><use xlink:href="#bbburst-shape-10" width="28.16251105465459" opacity="0.27678766595999904" transform="matrix(0.8545788141448476,0.5193217214933205,-0.5193217214933205,0.8545788141448476,911.2547146591367,130.4608466843224)" fill="none" stroke="#00a19d"></use><use xlink:href="#bbburst-shape-10" width="18.48498803317282" opacity="0.7008157222269407" transform="matrix(0.7472405816245197,0.6645536194871333,-0.6645536194871333,0.7472405816245197,533.1715459524222,46.85145570889273)" fill="none" stroke="#2c2891"></use><use xlink:href="#bbburst-shape-10" width="20.3191325763934" opacity="0.5435621269781634" transform="matrix(0.9980573249844062,-0.06230229566373382,0.06230229566373382,0.9980573249844062,405.2220728714576,202.81817830983567)" fill="none" stroke="#ff5c58"></use><use xlink:href="#bbburst-shape-6" width="32.703620678218456" opacity="0.40030361073795495" transform="matrix(0.9180652830041507,-0.396429232199782,0.396429232199782,0.9180652830041507,496.0815162738544,49.599785967312755)" fill="#ff5c58"></use><use xlink:href="#bbburst-shape-8" width="30.15243229629196" opacity="0.06652695001499942" transform="matrix(0.9666911953922628,0.2559455659922205,-0.2559455659922205,0.9666911953922628,263.57340086318356,364.6737414028199)" fill="none" stroke="#2c2891"></use><use xlink:href="#bbburst-shape-4" width="8.37723458507459" opacity="0.9841132708584676" transform="matrix(0.8318472066758844,0.5550047069579938,-0.5550047069579938,0.8318472066758844,622.758505578096,70.69489555631236)" fill="#00a19d"></use><use xlink:href="#bbburst-shape-8" width="18.46106926712783" opacity="0.6832459403185407" transform="matrix(0.9999994728627135,-0.0010267786007681285,0.0010267786007681285,0.9999994728627135,498.8387878435383,92.47340904513061)" fill="none" stroke="#ffa6d5"></use><use xlink:href="#bbburst-shape-6" width="30.445439698325618" opacity="0.3674612153752469" transform="matrix(0.9739327495765912,0.22683694430621518,-0.22683694430621518,0.9739327495765912,277.19766550491323,210.77605198952335)" fill="#2c2891"></use><use xlink:href="#bbburst-shape-1" width="18.85840545927197" opacity="0.7044825336674823" transform="matrix(0.7388813475817885,-0.6738355542680426,0.6738355542680426,0.7388813475817885,192.56201916622638,224.47195419491925)" fill="#2c2891"></use><use xlink:href="#bbburst-shape-4" width="24.303769630107396" opacity="0.3297956928765928" transform="matrix(0.7445735193664079,0.6675404663826167,-0.6675404663826167,0.7445735193664079,603.3267124760316,-202.5283566819582)" fill="#ffbd9b"></use><use xlink:href="#bbburst-shape-6" width="17.272568752832836" opacity="0.6599469833798515" transform="matrix(0.904170845995615,-0.42717102108122207,0.42717102108122207,0.904170845995615,291.96462515451026,-93.72160492896785)" fill="#ffa6d5"></use><use xlink:href="#bbburst-shape-4" width="23.773136521869315" opacity="0.5885807134814679" transform="matrix(0.7467563372829578,0.6650977166760846,-0.6650977166760846,0.7467563372829578,490.1482317546727,13.487314189391213)" fill="#00a19d"></use><use xlink:href="#bbburst-shape-10" width="47.12809443137065" opacity="-0.08014510826981391" transform="matrix(0.9231582157279444,-0.38442022414799937,0.38442022414799937,0.9231582157279444,-116.26810902508743,386.4235135368766)" fill="none" stroke="#2c2891"></use><use xlink:href="#bbburst-shape-6" width="12.955057628948929" opacity="0.7187855367817094" transform="matrix(0.973534919035934,0.2285383149883128,-0.2285383149883128,0.973534919035934,507.35207175002375,-115.47055808604972)" fill="#2c2891"></use><use xlink:href="#bbburst-shape-4" width="32.82802487468672" opacity="0.1924161014420107" transform="matrix(0.7593213974820399,-0.650715771536177,0.650715771536177,0.7593213974820399,168.47187636137687,468.04446815344926)" fill="#ffa6d5"></use><use xlink:href="#bbburst-shape-10" width="9.39349960996771" opacity="0.8520692175122941" transform="matrix(0.9993916532698863,-0.03487582793975445,0.03487582793975445,0.9993916532698863,378.5192988895425,-66.10125224430988)" fill="none" stroke="#2c2891"></use><use xlink:href="#bbburst-shape-4" width="28.70364839316734" opacity="0.5062070894047461" transform="matrix(0.9467613907350375,0.32193612567318025,-0.32193612567318025,0.9467613907350375,490.7512985442843,237.55985209157592)" fill="#2c2891"></use><use xlink:href="#bbburst-shape-1" width="17.152343539622052" opacity="0.729621128517345" transform="matrix(0.954773283210276,0.29733479054404327,-0.29733479054404327,0.954773283210276,464.16118649433764,127.96381093339846)" fill="#ffbd9b"></use><use xlink:href="#bbburst-shape-4" width="16.415284884269962" opacity="0.6596680449340993" transform="matrix(0.9902408531980268,-0.1393666124207799,0.1393666124207799,0.9902408531980268,464.92207639723574,-77.80376120283523)" fill="#ffa6d5"></use><use xlink:href="#bbburst-shape-4" width="14.446519274020446" opacity="0.698685206226356" transform="matrix(0.9990774042477779,0.04294578351272862,-0.04294578351272862,0.9990774042477779,503.7966696290939,-97.80549057644703)" fill="#00a19d"></use><use xlink:href="#bbburst-shape-8" width="34.29118003879242" opacity="0.4528336006333329" transform="matrix(0.9918796260401902,0.12718021641109284,-0.12718021641109284,0.9918796260401902,289.99377290088466,-198.75123831405517)" fill="none" stroke="#ffa6d5"></use><use xlink:href="#bbburst-shape-4" width="9.568768455179432" opacity="0.8693310674736312" transform="matrix(0.9981118070525326,0.061423290552754466,-0.061423290552754466,0.9981118070525326,478.5233815029446,-2.419775038846808)" fill="#00a19d"></use><use xlink:href="#bbburst-shape-10" width="10.974032178949669" opacity="0.9668692245985295" transform="matrix(0.9983859662509039,0.056793154457636656,-0.056793154457636656,0.9983859662509039,408.05413896680113,-11.409516985444725)" fill="none" stroke="#ffa6d5"></use><use xlink:href="#bbburst-shape-10" width="32.001208314326036" opacity="0.4636542382857083" transform="matrix(0.7155999042728639,0.6985103986374633,-0.6985103986374633,0.7155999042728639,775.0772298829961,318.8637420199858)" fill="none" stroke="#00a19d"></use><use xlink:href="#bbburst-shape-4" width="7.891980793255631" opacity="0.912318946563345" transform="matrix(0.7937715119889759,-0.6082160691355787,0.6082160691355787,0.7937715119889759,189.15409252608097,67.81777927166667)" fill="#00a19d"></use><use xlink:href="#bbburst-shape-10" width="12.417412193338173" opacity="0.8592412708083166" transform="matrix(0.8322829500689292,0.5543510539581938,-0.5543510539581938,0.8322829500689292,558.3473185538323,88.58301281402566)" fill="none" stroke="#00a19d"></use><use xlink:href="#bbburst-shape-1" width="22.701044230267478" opacity="0.45676361128648313" transform="matrix(0.7817473860359258,0.6235952408622097,-0.6235952408622097,0.7817473860359258,829.1620025664704,235.75515588876607)" fill="#ffa6d5"></use><use xlink:href="#bbburst-shape-8" width="14.74513061357818" opacity="0.7573797469297594" transform="matrix(0.9625623670044839,-0.27106030625439276,0.27106030625439276,0.9625623670044839,337.71420946333535,-78.34772137182699)" fill="none" stroke="#00a19d"></use><use xlink:href="#bbburst-shape-10" width="32.96614032822865" opacity="0.4626150128162516" transform="matrix(0.9055158065614893,0.4243125311221618,-0.4243125311221618,0.9055158065614893,357.23869628124635,-108.6573371571402)" fill="none" stroke="#2c2891"></use><use xlink:href="#bbburst-shape-6" width="22.103240220676863" opacity="0.5677802320306737" transform="matrix(0.9761728089175161,-0.2169945785730292,0.2169945785730292,0.9761728089175161,491.53525928212383,57.34896737092191)" fill="#2c2891"></use><use xlink:href="#bbburst-shape-6" width="43.43344747265235" opacity="0.1709625592317212" transform="matrix(0.9359427375663539,0.35215222844218824,-0.35215222844218824,0.9359427375663539,218.5492198592796,-201.07531789060988)" fill="#00a19d"></use><use xlink:href="#bbburst-shape-1" width="21.29024932765132" opacity="0.6607527037543891" transform="matrix(0.9723240265626796,0.2336364427244551,-0.2336364427244551,0.9723240265626796,635.6013635827976,15.544991028462789)" fill="#00a19d"></use><use xlink:href="#bbburst-shape-4" width="31.194892309782205" opacity="0.4579814771557631" transform="matrix(0.7982539365291982,0.6023210546009817,-0.6023210546009817,0.7982539365291982,759.2789000255498,-134.53247596160548)" fill="#ffa6d5"></use><use xlink:href="#bbburst-shape-1" width="15.230736325565587" opacity="0.7628792831177927" transform="matrix(0.9999621090623237,0.008705196128139078,-0.008705196128139078,0.9999621090623237,291.91650083733384,24.054541001844825)" fill="#ffa6d5"></use><use xlink:href="#bbburst-shape-4" width="17.865346987882464" opacity="0.7444512237806076" transform="matrix(0.9960886420946705,0.08835958968892568,-0.08835958968892568,0.9960886420946705,532.983259798734,-42.496302079724046)" fill="#ffa6d5"></use><use xlink:href="#bbburst-shape-6" width="32.120365411573516" opacity="0.4235906506925732" transform="matrix(0.9629483363232194,0.26968593135783697,-0.26968593135783697,0.9629483363232194,741.7139866955032,-61.11507494865958)" fill="#ffbd9b"></use><use xlink:href="#bbburst-shape-1" width="9.514643990901972" opacity="0.8886164422709881" transform="matrix(0.7203873726454662,0.6935719381094958,-0.6935719381094958,0.7203873726454662,658.3944492585554,156.18788571395692)" fill="#00a19d"></use><use xlink:href="#bbburst-shape-10" width="34.83486776216046" opacity="0.48431647505001063" transform="matrix(0.9379648942644941,0.34673023682309045,-0.34673023682309045,0.9379648942644941,519.0410970465304,-213.2590354296681)" fill="none" stroke="#00a19d"></use><use xlink:href="#bbburst-shape-1" width="10.878657312367032" opacity="0.8650724793422825" transform="matrix(0.9999542701089286,0.009563351448097702,-0.009563351448097702,0.9999542701089286,343.6186823871141,-26.23288612993656)" fill="#ff5c58"></use><use xlink:href="#bbburst-shape-10" width="27.04839292778216" opacity="0.1808907732357401" transform="matrix(0.9089866872377149,-0.4168251461039803,0.4168251461039803,0.9089866872377149,178.52919068021868,-324.1043455864486)" fill="none" stroke="#ffa6d5"></use><use xlink:href="#bbburst-shape-6" width="8.69316280831548" opacity="0.9165512827645076" transform="matrix(0.9321832982013458,-0.3619865999653314,0.3619865999653314,0.9321832982013458,250.38365436309664,-8.843844835305674)" fill="#00a19d"></use><use xlink:href="#bbburst-shape-10" width="28.303442058673188" opacity="0.5867005371264612" transform="matrix(0.998161912401099,-0.060603602465371796,0.060603602465371796,0.998161912401099,230.86775296873805,-130.659963587822)" fill="none" stroke="#ff5c58"></use><use xlink:href="#bbburst-shape-6" width="38.35388477209407" opacity="-0.0982953960986035" transform="matrix(0.8818152133780016,0.47159509057570725,-0.47159509057570725,0.8818152133780016,916.2423784721145,-316.1358552757104)" fill="#2c2891"></use><use xlink:href="#bbburst-shape-6" width="36.40390907766799" opacity="-0.005927031421025131" transform="matrix(0.8387992120080161,0.5444408892935314,-0.5444408892935314,0.8387992120080161,241.8626953975502,-219.0023843297505)" fill="#ff5c58"></use><use xlink:href="#bbburst-shape-10" width="12.017551523402322" opacity="0.8177634433874066" transform="matrix(0.9935544542063823,0.11335584028473202,-0.11335584028473202,0.9935544542063823,518.7756807460856,-18.600614019671866)" fill="none" stroke="#ffbd9b"></use><use xlink:href="#bbburst-shape-8" width="28.348296282361666" opacity="0.022558458346625843" transform="matrix(0.91545640417049,0.4024171617404462,-0.4024171617404462,0.91545640417049,907.2561179458469,-225.64913362506252)" fill="none" stroke="#ffa6d5"></use><use xlink:href="#bbburst-shape-4" width="24.614426971218002" opacity="0.6455191131600491" transform="matrix(0.931690979640218,-0.36325186641922574,0.36325186641922574,0.931690979640218,222.2821577025702,189.94858585901733)" fill="#ffbd9b"></use><use xlink:href="#bbburst-shape-4" width="23.529667124999616" opacity="0.4427669721888231" transform="matrix(0.9718337919587962,0.23566730958490456,-0.23566730958490456,0.9718337919587962,688.6164399917014,-134.765758522751)" fill="#00a19d"></use><use xlink:href="#bbburst-shape-10" width="27.75883976729054" opacity="0.5176127990484729" transform="matrix(0.7395918180822737,0.6730556757250896,-0.6730556757250896,0.7395918180822737,447.0669851469871,141.97854277217021)" fill="none" stroke="#ffa6d5"></use><use xlink:href="#bbburst-shape-8" width="13.01509950010638" opacity="0.8606933996260799" transform="matrix(0.9068725340779715,0.4214050390479429,-0.4214050390479429,0.9068725340779715,613.8559480450755,-1.6687716575311242)" fill="none" stroke="#ff5c58"></use><use xlink:href="#bbburst-shape-4" width="37.26665207293361" opacity="0.18462151538458182" transform="matrix(0.9509569246819187,0.3093233379483475,-0.3093233379483475,0.9509569246819187,785.9405903051259,-223.31341279543742)" fill="#00a19d"></use><use xlink:href="#bbburst-shape-6" width="25.375549175324007" opacity="0.0959450999211241" transform="matrix(0.9995917154992945,0.02857275459555145,-0.02857275459555145,0.9995917154992945,582.3876987915783,362.81934270000994)" fill="#2c2891"></use><use xlink:href="#bbburst-shape-10" width="34.5663307725293" opacity="0.1680745124866755" transform="matrix(0.9111436124445674,-0.41208896794437955,0.41208896794437955,0.9111436124445674,132.15224117316671,406.7184809161642)" fill="none" stroke="#ffa6d5"></use><use xlink:href="#bbburst-shape-4" width="8.797135639860715" opacity="0.9382414636995628" transform="matrix(0.8536082966961653,-0.5209154209768333,0.5209154209768333,0.8536082966961653,186.1543813215003,88.59230486478168)" fill="#ffbd9b"></use><use xlink:href="#bbburst-shape-4" width="32.86067934362407" opacity="0.17531385062971905" transform="matrix(0.9630819993584228,0.2692082140496143,-0.2692082140496143,0.9630819993584228,567.1916313314247,-353.0080214918635)" fill="#2c2891"></use><use xlink:href="#bbburst-shape-10" width="20.673515900699382" opacity="0.5425762289176039" transform="matrix(0.9988295202631063,-0.04836930277534396,0.04836930277534396,0.9988295202631063,575.4468482335257,-16.250944007653004)" fill="none" stroke="#00a19d"></use><use xlink:href="#bbburst-shape-4" width="26.274232225204173" opacity="0.5831769473528887" transform="matrix(0.8248985067887437,-0.5652808624902325,0.5652808624902325,0.8248985067887437,322.1240014351215,176.89804329310545)" fill="#00a19d"></use><use xlink:href="#bbburst-shape-4" width="16.234180050192656" opacity="0.7456454963987608" transform="matrix(0.8770176978134928,0.4804580707220153,-0.4804580707220153,0.8770176978134928,573.6057997632422,159.19114528481907)" fill="#ffa6d5"></use><use xlink:href="#bbburst-shape-6" width="36.814991944954436" opacity="0.14854142177155605" transform="matrix(0.9752135103277128,0.22126592434059994,-0.22126592434059994,0.9752135103277128,720.3927656077775,296.3414521438622)" fill="#00a19d"></use><use xlink:href="#bbburst-shape-4" width="19.711945640721876" opacity="0.6591498467039668" transform="matrix(0.9607687772414288,-0.27735060244753335,0.27735060244753335,0.9607687772414288,130.858150397558,55.90578286474664)" fill="#00a19d"></use><use xlink:href="#bbburst-shape-10" width="29.650168874284986" opacity="0.5847111796139579" transform="matrix(0.9069709628671582,0.4211931534531632,-0.4211931534531632,0.9069709628671582,368.95985059796527,13.602791143453828)" fill="none" stroke="#2c2891"></use><use xlink:href="#bbburst-shape-10" width="13.066285074860293" opacity="0.8378357658856288" transform="matrix(0.7885408443574495,0.6149823873738504,-0.6149823873738504,0.7885408443574495,594.4325045444137,24.250575641280705)" fill="none" stroke="#00a19d"></use><use xlink:href="#bbburst-shape-6" width="38.75814526742986" opacity="-0.08312416395813615" transform="matrix(0.9770002058352604,0.21323835911453376,-0.21323835911453376,0.9770002058352604,798.7496377844775,361.554860829478)" fill="#ff5c58"></use><use xlink:href="#bbburst-shape-4" width="9.358905872481822" opacity="0.9252940678283841" transform="matrix(0.8699701834018505,0.4931043297231841,-0.4931043297231841,0.8699701834018505,615.1365711662821,75.15719881868296)" fill="#00a19d"></use><use xlink:href="#bbburst-shape-4" width="26.349645435632677" opacity="0.2997766222395326" transform="matrix(0.9888189208839281,-0.14912123155990853,0.14912123155990853,0.9888189208839281,21.54604720112671,82.52658871657775)" fill="#ffa6d5"></use><use xlink:href="#bbburst-shape-6" width="15.84456622172979" opacity="0.6213908235865812" transform="matrix(0.8395965694822282,-0.5432104569259267,0.5432104569259267,0.8395965694822282,191.9302611309679,-101.16878525190225)" fill="#ff5c58"></use><use xlink:href="#bbburst-shape-10" width="9.48510570098808" opacity="0.8420170079732481" transform="matrix(0.7412529726888738,0.6712257671453828,-0.6712257671453828,0.7412529726888738,725.9081535500945,136.93866244909248)" fill="none" stroke="#ff5c58"></use><use xlink:href="#bbburst-shape-4" width="7.8181681849850095" opacity="0.9440148944509901" transform="matrix(0.8452394284055252,-0.5343877886597905,0.5343877886597905,0.8452394284055252,208.02916643500453,66.33681206361774)" fill="#00a19d"></use><use xlink:href="#bbburst-shape-1" width="9.202977003156493" opacity="0.9489003361526391" transform="matrix(0.9670530471029304,-0.25457494788163565,0.25457494788163565,0.9670530471029304,306.65163893303463,-4.654556621249526)" fill="#00a19d"></use><use xlink:href="#bbburst-shape-8" width="36.039398520622356" opacity="0.3412025512102449" transform="matrix(0.9435052871415306,0.3313574703186544,-0.3313574703186544,0.9435052871415306,702.1270931793292,247.00399450535718)" fill="none" stroke="#ffa6d5"></use><use xlink:href="#bbburst-shape-6" width="29.226863794303192" opacity="0.1301625046345053" transform="matrix(0.9799724580344311,-0.1991330748367911,0.1991330748367911,0.9799724580344311,669.7180719025008,-133.7959973993352)" fill="#ff5c58"></use><use xlink:href="#bbburst-shape-10" width="29.10711039680391" opacity="0.1528329622619351" transform="matrix(0.7827841720501586,0.6222932909711848,-0.6222932909711848,0.7827841720501586,281.05946334993536,212.97756073696632)" fill="none" stroke="#ffbd9b"></use><use xlink:href="#bbburst-shape-8" width="18.616723554448505" opacity="0.6464761613574561" transform="matrix(0.8827089233544522,0.4699201598467806,-0.4699201598467806,0.8827089233544522,623.3226007569052,195.5449553868047)" fill="none" stroke="#ffbd9b"></use><use xlink:href="#bbburst-shape-4" width="15.687224266494535" opacity="0.8168645535026433" transform="matrix(0.7873755593778611,-0.616473623518801,0.616473623518801,0.7873755593778611,117.15344772709403,166.61766430860496)" fill="#ff5c58"></use><use xlink:href="#bbburst-shape-10" width="31.98903960529106" opacity="0.07737757635923637" transform="matrix(0.8020702331388135,0.5972297222280964,-0.5972297222280964,0.8020702331388135,877.487542773065,-260.77463613141333)" fill="none" stroke="#ffa6d5"></use><use xlink:href="#bbburst-shape-8" width="25.189283906617263" opacity="0.34321383995020927" transform="matrix(0.8461692717085847,0.532914217877665,-0.532914217877665,0.8461692717085847,551.0708573930242,345.86372406165066)" fill="none" stroke="#00a19d"></use><use xlink:href="#bbburst-shape-6" width="10.480216739987497" opacity="0.910206507438257" transform="matrix(0.9840240022808626,0.17803584733180247,-0.17803584733180247,0.9840240022808626,425.65108095771006,5.324371888446365)" fill="#2c2891"></use><use xlink:href="#bbburst-shape-1" width="37.43688034867693" opacity="0.03396472621418056" transform="matrix(0.801507062677072,-0.5979853079121361,0.5979853079121361,0.801507062677072,497.8083556748606,345.75733939508837)" fill="#2c2891"></use><use xlink:href="#bbburst-shape-1" width="12.572334359241072" opacity="0.7969864646900553" transform="matrix(0.7375219505592174,0.6753231614888736,-0.6753231614888736,0.7375219505592174,677.0833492375314,10.141503125645613)" fill="#2c2891"></use><use xlink:href="#bbburst-shape-10" width="17.48571740378015" opacity="0.7540806416472923" transform="matrix(0.8781336959339898,-0.47841531336832344,0.47841531336832344,0.8781336959339898,128.43759219318468,136.52030720989228)" fill="none" stroke="#ffa6d5"></use><use xlink:href="#bbburst-shape-4" width="8.972189117961813" opacity="0.8942380748323411" transform="matrix(0.7150505288452359,0.6990727724623156,-0.6990727724623156,0.7150505288452359,721.1575626912289,127.07415152887631)" fill="#00a19d"></use><use xlink:href="#bbburst-shape-6" width="35.734093857417605" opacity="-0.09254832673640112" transform="matrix(0.9942822530134728,-0.1067839002024758,0.1067839002024758,0.9942822530134728,7.080611416294417,-358.0193347048096)" fill="#ffa6d5"></use><use xlink:href="#bbburst-shape-10" width="15.615022506050046" opacity="0.7900843160841352" transform="matrix(0.9862685089377434,-0.16514971473702383,0.16514971473702383,0.9862685089377434,399.27469273708334,-53.12616186155316)" fill="none" stroke="#ffa6d5"></use><use xlink:href="#bbburst-shape-6" width="29.073730931400682" opacity="0.18683211229309082" transform="matrix(0.7357869306490636,-0.677213107290482,0.677213107290482,0.7357869306490636,-247.45286279342557,121.80096162973041)" fill="#2c2891"></use><use xlink:href="#bbburst-shape-1" width="29.79012467058673" opacity="0.31160622410391525" transform="matrix(0.8046474877261427,0.5937528277793774,-0.5937528277793774,0.8046474877261427,409.4619837321618,-152.69118407394546)" fill="#ffa6d5"></use><use xlink:href="#bbburst-shape-6" width="9.102871344452568" opacity="0.8427404327313872" transform="matrix(0.8470759087785908,-0.5314719228396967,0.5314719228396967,0.8470759087785908,112.83183280707999,66.04865293615364)" fill="#ffbd9b"></use><use xlink:href="#bbburst-shape-6" width="12.207262518650364" opacity="0.8043511006595114" transform="matrix(0.9826345703127007,-0.18555134390883266,0.18555134390883266,0.9826345703127007,326.8244080557695,95.83872819540369)" fill="#ffa6d5"></use><use xlink:href="#bbburst-shape-1" width="10.265958513738125" opacity="0.8521674206211739" transform="matrix(0.9099809489269547,-0.4146500604003321,0.4146500604003321,0.9099809489269547,227.90884873594956,104.65429141463886)" fill="#2c2891"></use><use xlink:href="#bbburst-shape-10" width="21.96690451459927" opacity="0.553073616093321" transform="matrix(0.8485488613078052,0.5291170286177032,-0.5291170286177032,0.8485488613078052,524.2401616395249,240.10772478549222)" fill="none" stroke="#00a19d"></use><use xlink:href="#bbburst-shape-6" width="29.990618195323414" opacity="0.43353290514897325" transform="matrix(0.9793063599103583,-0.20238343173077142,0.20238343173077142,0.9793063599103583,541.6323492090332,104.48900982715719)" fill="#2c2891"></use><use xlink:href="#bbburst-shape-10" width="12.83338455098528" opacity="0.8402935458801603" transform="matrix(0.9258739197303912,-0.3778326147424028,0.3778326147424028,0.9258739197303912,194.15738209926315,84.86338707901047)" fill="none" stroke="#00a19d"></use><use xlink:href="#bbburst-shape-4" width="13.158302874394229" opacity="0.7328920025550554" transform="matrix(0.8488024972457879,0.5287100534974856,-0.5287100534974856,0.8488024972457879,629.8997787379016,174.7875411301564)" fill="#ffa6d5"></use><use xlink:href="#bbburst-shape-4" width="26.97960216637098" opacity="0.580074264933792" transform="matrix(0.9531971586493033,-0.30234942821658334,0.30234942821658334,0.9531971586493033,179.8521724210821,-145.25673609359228)" fill="#ff5c58"></use><use xlink:href="#bbburst-shape-1" width="10.517934612877545" opacity="0.783273986860287" transform="matrix(0.9963493942421123,0.08536910795701048,-0.08536910795701048,0.9963493942421123,493.1582690771588,74.39507548786747)" fill="#ffa6d5"></use><use xlink:href="#bbburst-shape-6" width="7.758422515102357" opacity="0.8842418958880403" transform="matrix(0.9596903240899259,-0.2810595699281079,0.2810595699281079,0.9596903240899259,298.5721127074924,67.18267969921186)" fill="#00a19d"></use><use xlink:href="#bbburst-shape-6" width="11.24955094051713" opacity="0.8295590023796583" transform="matrix(0.9426243637731694,0.33385522134785844,-0.33385522134785844,0.9426243637731694,565.3169238778951,-46.068764970370864)" fill="#ffa6d5"></use><use xlink:href="#bbburst-shape-6" width="13.546043207670941" opacity="0.8059535592045526" transform="matrix(0.9370451975868481,-0.3492081008215943,0.3492081008215943,0.9370451975868481,289.2612076900434,107.41892547649456)" fill="#00a19d"></use><use xlink:href="#bbburst-shape-6" width="16.488414750814677" opacity="0.7253108421850729" transform="matrix(0.9527688417183288,0.3036964508365454,-0.3036964508365454,0.9527688417183288,493.1738886523573,-105.51789284186151)" fill="#ffa6d5"></use><use xlink:href="#bbburst-shape-10" width="23.438729985901844" opacity="0.5809864859412608" transform="matrix(0.9327575684693695,0.3605042558183042,-0.3605042558183042,0.9327575684693695,645.4606575354486,174.21991068876076)" fill="none" stroke="#ffa6d5"></use><use xlink:href="#bbburst-shape-1" width="17.123022871721087" opacity="0.7620420648176172" transform="matrix(0.7715241816004128,-0.6361999978040028,0.6361999978040028,0.7715241816004128,71.04736493436019,14.038201235355302)" fill="#00a19d"></use><use xlink:href="#bbburst-shape-6" width="32.50969194402493" opacity="0.3640277117507438" transform="matrix(0.7767934920461627,0.6297554054668592,-0.6297554054668592,0.7767934920461627,388.4303767815213,216.81474510121853)" fill="#ff5c58"></use><use xlink:href="#bbburst-shape-6" width="9.933479541174409" opacity="0.8872877922522985" transform="matrix(0.7963228497997423,-0.6048718202121975,0.6048718202121975,0.7963228497997423,176.84599985622165,39.14290842583506)" fill="#2c2891"></use><use xlink:href="#bbburst-shape-1" width="20.31018135267964" opacity="0.6895262719093547" transform="matrix(0.7633844667924053,-0.6459443906870582,0.6459443906870582,0.7633844667924053,66.465332606723,-21.142901582070806)" fill="#00a19d"></use><use xlink:href="#bbburst-shape-1" width="25.385986189427523" opacity="0.4234658070818025" transform="matrix(0.7593000793616742,0.6507406468642905,-0.6507406468642905,0.7593000793616742,530.3056874085348,317.89196694379274)" fill="#00a19d"></use><use xlink:href="#bbburst-shape-6" width="24.82674386329646" opacity="0.5654132581887487" transform="matrix(0.9728893628337413,-0.23127102647101508,0.23127102647101508,0.9728893628337413,428.7223706959541,-129.3733756940415)" fill="#ffa6d5"></use><use xlink:href="#bbburst-shape-6" width="18.751787930951085" opacity="0.6097837248463369" transform="matrix(0.85859136741701,0.5126605736713024,-0.5126605736713024,0.85859136741701,563.0629165229566,-120.52691302635628)" fill="#ffbd9b"></use><use xlink:href="#bbburst-shape-10" width="22.6982047279087" opacity="0.43292723574108327" transform="matrix(0.8002272498812972,-0.599696880555015,0.599696880555015,0.8002272498812972,221.99532868301617,-158.4042137089108)" fill="none" stroke="#ffa6d5"></use><use xlink:href="#bbburst-shape-4" width="39.28551166473566" opacity="0.04848091768003793" transform="matrix(0.9413274440049906,0.3374946564955233,-0.3374946564955233,0.9413274440049906,160.43449295950015,254.7003556421821)" fill="#00a19d"></use><use xlink:href="#bbburst-shape-6" width="23.69893215813384" opacity="0.5574193050904219" transform="matrix(0.9922875119218544,0.12395762858305914,-0.12395762858305914,0.9922875119218544,617.1134392330839,-85.10650086248421)" fill="#ffa6d5"></use><use xlink:href="#bbburst-shape-10" width="24.818357247116122" opacity="0.11518408009041081" transform="matrix(0.8411537335057041,0.5407960767326395,-0.5407960767326395,0.8411537335057041,445.29592918218964,-307.5206941542286)" fill="none" stroke="#ffbd9b"></use><use xlink:href="#bbburst-shape-4" width="33.636949572880056" opacity="0.3835524939649657" transform="matrix(0.9976722615816028,-0.06819133721118682,0.06819133721118682,0.9976722615816028,391.38591387039395,277.23667730919027)" fill="#ff5c58"></use><use xlink:href="#bbburst-shape-6" width="41.85476183798715" opacity="0.2780716206098327" transform="matrix(0.7578571662574606,-0.65242050515922,0.65242050515922,0.7578571662574606,-196.0638694454297,50.282659545338106)" fill="#00a19d"></use><use xlink:href="#bbburst-shape-10" width="15.582162661276216" opacity="0.7960029681528785" transform="matrix(0.8904987798196153,-0.4549856295969975,0.4549856295969975,0.8904987798196153,179.7447434577684,-38.94408153910939)" fill="none" stroke="#2c2891"></use><use xlink:href="#bbburst-shape-10" width="27.71093344780955" opacity="0.3197142175243881" transform="matrix(0.9614303068183863,-0.2750486595697272,0.2750486595697272,0.9614303068183863,310.50070685998566,-285.01355013613056)" fill="none" stroke="#ffa6d5"></use><use xlink:href="#bbburst-shape-8" width="30.01246361936338" opacity="0.1848065611259847" transform="matrix(0.8004305849211788,-0.5994254571860788,0.5994254571860788,0.8004305849211788,514.7144299644682,104.63577696816668)" fill="none" stroke="#00a19d"></use><use xlink:href="#bbburst-shape-10" width="19.13874480044502" opacity="0.7024385761736998" transform="matrix(0.9121385849513522,-0.4098819364682283,0.4098819364682283,0.9121385849513522,93.66685841297462,30.87447637826523)" fill="none" stroke="#ffbd9b"></use><use xlink:href="#bbburst-shape-10" width="33.640626797227746" opacity="0.40400174251789633" transform="matrix(0.9998370690127276,-0.018050912110977826,0.018050912110977826,0.9998370690127276,108.00946244474744,11.86730392838109)" fill="none" stroke="#ffbd9b"></use><use xlink:href="#bbburst-shape-6" width="26.354957650434713" opacity="0.67414959760421" transform="matrix(0.9664243465898035,-0.2569513228579909,0.2569513228579909,0.9664243465898035,165.12471795711718,101.98922448078116)" fill="#00a19d"></use><use xlink:href="#bbburst-shape-6" width="20.650336630127082" opacity="0.5658580364169212" transform="matrix(0.8152835639912558,-0.5790619226695155,0.5790619226695155,0.8152835639912558,226.34148527595954,-103.87383275785339)" fill="#ffa6d5"></use><use xlink:href="#bbburst-shape-8" width="19.722763305711272" opacity="0.6497178502791293" transform="matrix(0.7078590912303668,-0.706353669886778,0.706353669886778,0.7078590912303668,263.07244329259044,84.30982011220283)" fill="none" stroke="#ffa6d5"></use><use xlink:href="#bbburst-shape-6" width="11.64605475588558" opacity="0.8821653383513038" transform="matrix(0.9999680330233653,-0.007995807112590536,0.007995807112590536,0.9999680330233653,368.10836664445617,-47.78043762354804)" fill="#00a19d"></use><use xlink:href="#bbburst-shape-6" width="9.714347311981495" opacity="0.9058996792128119" transform="matrix(0.8253121936474325,0.5646767066356314,-0.5646767066356314,0.8253121936474325,591.165739395412,96.30189135968396)" fill="#00a19d"></use><use xlink:href="#bbburst-shape-6" width="27.824512207812532" opacity="0.5304648038000651" transform="matrix(0.9540366022485448,0.299690109229604,-0.299690109229604,0.9540366022485448,358.6637223784,165.07299986129743)" fill="#2c2891"></use><use xlink:href="#bbburst-shape-6" width="32.00831590138569" opacity="0.28844739583143797" transform="matrix(0.8619298092716441,-0.5070276164953417,0.5070276164953417,0.8619298092716441,466.7939802273013,-85.69406118560187)" fill="#00a19d"></use><use xlink:href="#bbburst-shape-10" width="33.52920545846885" opacity="0.3319067474407478" transform="matrix(0.9083484970371771,-0.4182140695030493,0.4182140695030493,0.9083484970371771,420.8858421092159,-177.71972702264205)" fill="none" stroke="#2c2891"></use><use xlink:href="#bbburst-shape-4" width="24.572117143487432" opacity="0.4615537175443468" transform="matrix(0.7877971888408702,0.6159347280795443,-0.6159347280795443,0.7877971888408702,559.5515696958437,-152.36572450466798)" fill="#ffbd9b"></use><use xlink:href="#bbburst-shape-10" width="25.4643383816076" opacity="0.13175391553160454" transform="matrix(0.9018525743897012,0.4320439029388892,-0.4320439029388892,0.9018525743897012,923.6643208121757,179.9510495898203)" fill="none" stroke="#ffa6d5"></use><use xlink:href="#bbburst-shape-1" width="11.847010190313773" opacity="0.8064979059217883" transform="matrix(0.7371330301570227,-0.6757476569338039,0.6757476569338039,0.7371330301570227,210.47870752913917,127.44864956668255)" fill="#00a19d"></use><use xlink:href="#bbburst-shape-6" width="11.249698245575058" opacity="0.9205520247716928" transform="matrix(0.9979706901792883,0.06367496794718465,-0.06367496794718465,0.9979706901792883,392.6722314885867,-22.76676553608371)" fill="#ffa6d5"></use><use xlink:href="#bbburst-shape-4" width="25.339083643831447" opacity="0.10156360635788153" transform="matrix(0.9676049964988022,-0.2524689500721883,0.2524689500721883,0.9676049964988022,462.3058210545682,-348.01729417824976)" fill="#ff5c58"></use><use xlink:href="#bbburst-shape-1" width="35.09024512536139" opacity="0.3222087817448751" transform="matrix(0.9972084509204462,0.07466796778300702,-0.07466796778300702,0.9972084509204462,139.40491003157672,-136.23659785999075)" fill="#00a19d"></use><use xlink:href="#bbburst-shape-8" width="39.8410902467825" opacity="0.13171912483069992" transform="matrix(0.9741656803464941,0.22583451294045456,-0.22583451294045456,0.9741656803464941,106.51723393875248,-135.1330642898223)" fill="none" stroke="#ffa6d5"></use><use xlink:href="#bbburst-shape-8" width="38.89292921949677" opacity="0.10739111018445968" transform="matrix(0.9526371214971693,-0.30410937957515805,0.30410937957515805,0.9526371214971693,15.520692997647217,-293.9741163254767)" fill="none" stroke="#2c2891"></use><use xlink:href="#bbburst-shape-6" width="15.10763935550199" opacity="0.7898161733876116" transform="matrix(0.9973222563989487,-0.07313218779244729,0.07313218779244729,0.9973222563989487,282.5733211428467,-47.80343612699795)" fill="#2c2891"></use><use xlink:href="#bbburst-shape-10" width="23.76821073416573" opacity="0.6489322552536609" transform="matrix(0.9792592629038026,0.20261119420481466,-0.20261119420481466,0.9792592629038026,381.6215743827235,137.2337015104752)" fill="none" stroke="#ffa6d5"></use><use xlink:href="#bbburst-shape-10" width="27.653212696009298" opacity="0.28097735393524537" transform="matrix(0.9496179372521047,0.3134099124932996,-0.3134099124932996,0.9496179372521047,634.4648919879272,315.40381131529534)" fill="none" stroke="#00a19d"></use><use xlink:href="#bbburst-shape-6" width="15.788105378445959" opacity="0.7501351177864721" transform="matrix(0.9871202337626626,-0.15998013656809537,0.15998013656809537,0.9871202337626626,440.6350234091352,4.3064882554258475)" fill="#ffa6d5"></use><use xlink:href="#bbburst-shape-6" width="11.828288124171864" opacity="0.7812702479133788" transform="matrix(0.9352125739668138,-0.3540867711371987,0.3540867711371987,0.9352125739668138,168.08046729520217,78.0584632764398)" fill="#2c2891"></use><use xlink:href="#bbburst-shape-4" width="39.10668339770669" opacity="0.1894697123613247" transform="matrix(0.8779498044313513,-0.47875269283728517,0.47875269283728517,0.8779498044313513,-76.56872198064323,305.70867021154817)" fill="#ffa6d5"></use></svg>